# Cornell box room
mtllib cornell_room.mtl
v -2.6 0 -2.6
v 2.6 0 -2.6
v 2.6 0 2.6
v -2.6 0 2.6
v -2.6 5.2 -2.6
v 2.6 5.2 -2.6
v 2.6 5.2 2.6
v -2.6 5.2 2.6
v -2.6 0 -2.6
v 2.6 0 -2.6
v 2.6 5.2 -2.6
v -2.6 5.2 -2.6
v -2.6 0 -2.6
v -2.6 0 2.6
v -2.6 5.2 2.6
v -2.6 5.2 -2.6
v 2.6 0 -2.6
v 2.6 0 2.6
v 2.6 5.2 2.6
v 2.6 5.2 -2.6
v -0.65 5.18 -0.65
v 0.65 5.18 -0.65
v 0.65 5.18 0.65
v -0.65 5.18 0.65
usemtl white
f 1 2 3
f 1 3 4
f 5 6 7
f 5 7 8
f 9 10 11
f 9 11 12
usemtl red
f 13 14 15
f 13 15 16
usemtl green
f 17 18 19
f 17 19 20
usemtl light
f 21 22 23
f 21 23 24
